inDegrees=no
num_controls=7
num_derivatives=13
num_iterations=103
num_multipliers=7
num_parameters=0
num_slacks=7
num_states=26
objective=0.542783
objective_accelerations=0.064639
objective_balance=0.003365
objective_effort=0.047985
objective_height=0.417625
objective_ligament=0.009170
solver_duration=1399.863365
status=Solve_Succeeded
success=true
DataType=double
version=3
OpenSimVersion=4.5
endheader
time	/jointset/ground_pelvis/pelvis_tilt/value	/jointset/ground_pelvis/pelvis_tx/value	/jointset/ground_pelvis/pelvis_ty/value	/jointset/hip_r/hip_flexion_r/value	/jointset/hip_r/hip_adduction_r/value	/jointset/hip_r/hip_rotation_r/value	/jointset/back/lumbar_extension/value	/jointset/patellofemoral_r/patellar_flexion_r/value	/jointset/knee_r/knee_flexion_r/value	/jointset/knee_r/knee_adduction_r/value	/jointset/knee_r/knee_rotation_r/value	/jointset/ankle_r/ankle_angle_r/value	/jointset/subtalar_r/subtalar_angle_r/value	/jointset/ground_pelvis/pelvis_tilt/speed	/jointset/ground_pelvis/pelvis_tx/speed	/jointset/ground_pelvis/pelvis_ty/speed	/jointset/hip_r/hip_flexion_r/speed	/jointset/hip_r/hip_adduction_r/speed	/jointset/hip_r/hip_rotation_r/speed	/jointset/back/lumbar_extension/speed	/jointset/patellofemoral_r/patellar_flexion_r/speed	/jointset/knee_r/knee_flexion_r/speed	/jointset/knee_r/knee_adduction_r/speed	/jointset/knee_r/knee_rotation_r/speed	/jointset/ankle_r/ankle_angle_r/speed	/jointset/subtalar_r/subtalar_angle_r/speed	/forceset/tau_hip_flexion_r	/forceset/tau_hip_adduction_r	/forceset/tau_hip_rotation_r	/forceset/tau_knee_flexion_r	/forceset/tau_ankle_angle_r	/forceset/tau_subtalar_angle_r	/forceset/tau_lumbar_extension	lambda_cid13_p0	lambda_cid14_p0	lambda_cid14_p1	lambda_cid14_p2	lambda_cid14_p3	lambda_cid14_p4	lambda_cid14_p5	/jointset/ground_pelvis/pelvis_tilt/accel	/jointset/ground_pelvis/pelvis_tx/accel	/jointset/ground_pelvis/pelvis_ty/accel	/jointset/hip_r/hip_flexion_r/accel	/jointset/hip_r/hip_adduction_r/accel	/jointset/hip_r/hip_rotation_r/accel	/jointset/back/lumbar_extension/accel	/jointset/patellofemoral_r/patellar_flexion_r/accel	/jointset/knee_r/knee_flexion_r/accel	/jointset/knee_r/knee_adduction_r/accel	/jointset/knee_r/knee_rotation_r/accel	/jointset/ankle_r/ankle_angle_r/accel	/jointset/subtalar_r/subtalar_angle_r/accel	gamma_cid13_p0	gamma_cid14_p0	gamma_cid14_p1	gamma_cid14_p2	gamma_cid14_p3	gamma_cid14_p4	gamma_cid14_p5
1	-0.3474817353566758	-0.02283322205407831	0.5982897954662466	1.667692264826855	-0.2313608100333107	-0.0920064970287401	-0.436322412426341	1.546213152592497	1.546213152592744	-0.1625548228456651	0.1707841234274839	0.4363320065979066	0.1127775252159881	0.000444036050150551	0.002824714080695909	0.01738816596313527	-0.04611879587798064	0.003119724573552921	-0.01726713287219346	-0.0002346636302401905	-0.0489419662508541	-0.04894196625086091	-0.008773723745534938	-0.0008876160989549037	-0.003177921935765089	0.004454221238995637	-0.323599860758453	0.01933200090319756	-0.002104268025772167	-0.5340208746668308	0.02120997674467655	0.006323481778641389	0.3278939737930753	-0.04259973532341234	-44.28916356142497	-8.036399259983504	5.199866627718555	20.07909830465024	-827.6215248138416	56.94083176217401	1.215261739604596	-0.003510991268260506	2.199347653973479	-6.352487323088558	0.2083371019186407	-0.1643894515922847	-0.02104082977656652	-6.09667401601575	-6.096674016016054	1.213571402403142	0.1366405728123261	-1.125612486728972	-0.09434443524542607	8.846614973165001e-09	1.479332701576974e-08	4.376532526698685e-08	6.07371226424326e-08	-4.391054178565764e-09	-1.187476058627779e-08	1.10112893328394e-07
1.01	-0.3474170299881517	-0.02280514687498169	0.5985735325567917	1.666914147835515	-0.2313192246125018	-0.09218382518594194	-0.4363251627521719	1.54541914066496	1.545419140664989	-0.1625782732417494	0.1707816986127844	0.4362438169871999	0.1128171630682498	0.01250294776947431	0.002793404164840512	0.03935853168008186	-0.1095076826219404	0.005197225902411948	-0.01820029497830507	-0.0003137124545954895	-0.1098699849152026	-0.1098699849151817	0.004085740606904354	0.0004037887615292246	-0.01447384323925215	0.003467078459578463	-0.3235375145639264	0.01944952215422809	-0.002033526681166621	-0.5338390001501826	0.02124382379835216	0.006267356649705087	0.3278756594902103	-0.04261484685735959	-44.27723093910942	-8.068781085870897	5.216561434661049	20.04477412324876	-827.5529506083633	56.86674234750904	1.202098599348298	-0.002481517017966659	2.19576839960371	-6.332545541960037	0.207454808972576	-0.05803785249551568	-0.001083546543263003	-6.092304147346238	-6.092304147341915	1.322443278048837	0.1255979621232803	-1.133657444535199	-0.1018088027610414	1.744758230008908e-08	3.159062441912435e-08	9.696393466127959e-08	1.35071612636805e-07	-1.434542691738592e-08	-2.269609974710703e-08	2.420018636579226e-07
1.02	-0.3472315569601821	-0.02277729290009843	0.5990769507783158	1.665502050738354	-0.2312568645462837	-0.09237053661667928	-0.4363286528937774	1.54401556087964	1.544015560879447	-0.1624730671290276	0.1707922293505811	0.4360422530649803	0.112846747572023	0.02459756793887708	0.002780473238022408	0.06132439215896669	-0.1729148170423172	0.007274653655392061	-0.01914378757941252	-0.0003826267900805605	-0.1708555378076245	-0.1708555378075744	0.01695757801472328	0.001703494400286105	-0.02585278423780378	0.002443551541314525	-0.3234751683694074	0.01956704340525923	-0.001962785336603499	-0.5336571256335362	0.02127767085202961	0.006211231520771518	0.3278573451873384	-0.04263961297229912	-44.27302562645246	-8.096910347884076	5.226174968900096	20.03318433815174	-827.6000179195208	56.83364407893616	1.22240342962041	0.0001648065391940366	2.198446606361125	-6.35613685837199	0.2083223867428593	-0.1664555505914517	-0.01901393200238184	-6.108180861630428	-6.108180861630425	1.216046013479069	0.138300728466875	-1.14221642574189	-0.1016212630147796	2.567352191188406e-08	4.784197671683329e-08	1.470378056299107e-07	2.074186837813599e-07	-2.398398583863518e-08	-3.210642376569095e-08	3.66996656901477e-07
1.03	-0.346925172586489	-0.02274938300048196	0.5997998866717636	1.663456175665332	-0.2311737413108714	-0.09256677515337264	-0.4363320742071486	1.542002038067689	1.542002038067532	-0.1622391579220669	0.1708157217994146	0.4357265048399015	0.112865905066407	0.03666317655236705	0.002813934919552876	0.08325027023232662	-0.2362245883672323	0.009348870458424346	-0.02010324111014357	-0.0002284795329266258	-0.2318387964936526	-0.2318387964935688	0.02982522691698868	0.002987755796775144	-0.0373086471067838	0.001380726170248276	-0.3234752251088588	0.01962154736206057	-0.001795749319017922	-0.533072020889525	0.02134728033698718	0.006168211898429108	0.3279882813157931	-0.04266757607849948	-44.23525735827606	-8.103965629643836	5.221571431457681	19.88205399864671	-827.4046415446566	56.8039179018662	1.196232110616496	0.006794301817744541	2.187772605664282	-6.313044404185053	0.2068408051077555	-0.06056500896754746	0.04360251290501357	-6.091870987716558	-6.091870987711546	1.322258264610176	0.1224797340422351	-1.149037412844572	-0.1096325447740155	3.389563471025934e-08	6.408775814611727e-08	1.970797915125657e-07	2.79745475141733e-07	-3.361932216990923e-08	-4.150234967057849e-08	4.919211013992561e-07
